<svg width="21" height="20" viewBox="0 0 21 20" fill="none" xmlns="http://www.w3.org/2000/svg">
<path d="M18.8525 0H1.80957C0.993164 0 0.333008 0.644531 0.333008 1.44141V18.5547C0.333008 19.3516 0.993164 20 1.80957 20H18.8525C19.6689 20 20.333 19.3516 20.333 18.5586V1.44141C20.333 0.644531 19.6689 0 18.8525 0ZM6.2666 17.043H3.29785V7.49609H6.2666V17.043ZM4.78223 6.19531C3.8291 6.19531 3.05957 5.42578 3.05957 4.47656C3.05957 3.52734 3.8291 2.75781 4.78223 2.75781C5.73145 2.75781 6.50098 3.52734 6.50098 4.47656C6.50098 5.42188 5.73145 6.19531 4.78223 6.19531ZM17.376 17.043H14.4111V12.4023C14.4111 11.2969 14.3916 9.87109 12.8682 9.87109C11.3252 9.87109 11.0908 11.0781 11.0908 12.3242V17.043H8.12988V7.49609H10.9736V8.80078H11.0127C11.4072 8.05078 12.376 7.25781 13.8174 7.25781C16.8213 7.25781 17.376 9.23438 17.376 11.8047V17.043Z" fill="#333333"/>
</svg>
