<svg width="21" height="18" viewBox="0 0 21 18" fill="none" xmlns="http://www.w3.org/2000/svg">
<path d="M6.6248 17.1251C14.1701 17.1251 18.2982 10.8724 18.2982 5.45167C18.2982 5.27589 18.2943 5.0962 18.2865 4.92042C19.0896 4.33967 19.7826 3.62033 20.333 2.7962C19.5851 3.12896 18.791 3.34627 17.9779 3.44074C18.8341 2.92755 19.4751 2.12135 19.7822 1.17159C18.9768 1.64892 18.096 1.98563 17.1775 2.1673C16.5587 1.50976 15.7405 1.07439 14.8494 0.928498C13.9583 0.78261 13.044 0.934331 12.2478 1.3602C11.4516 1.78607 10.8178 2.46238 10.4445 3.28455C10.0713 4.10672 9.9792 5.02897 10.1826 5.9087C8.55175 5.82686 6.95629 5.40321 5.49966 4.6652C4.04303 3.9272 2.75775 2.89132 1.72715 1.62472C1.20334 2.52782 1.04305 3.59649 1.27887 4.61353C1.51468 5.63057 2.12889 6.51966 2.99668 7.10011C2.3452 7.07943 1.70799 6.90402 1.1377 6.58839V6.63917C1.13711 7.58691 1.46476 8.50561 2.06493 9.2391C2.66511 9.97258 3.50078 10.4756 4.42988 10.6626C3.82639 10.8277 3.19299 10.8518 2.57871 10.7329C2.84089 11.548 3.35099 12.2609 4.03782 12.7721C4.72465 13.2833 5.55394 13.5673 6.40996 13.5845C4.95669 14.726 3.16149 15.3452 1.31348 15.3423C0.985747 15.3418 0.65834 15.3217 0.333008 15.2821C2.21039 16.4866 4.39428 17.1263 6.6248 17.1251Z" fill="#333333"/>
</svg>
